<svg width="18" height="18" viewBox="0 0 18 18" fill="none" xmlns="http://www.w3.org/2000/svg">
<path fill-rule="evenodd" clip-rule="evenodd" d="M0.427098 15.6222C-0.0191696 16.0591 -0.0191694 16.7674 0.427098 17.2044C0.873366 17.6413 1.59691 17.6413 2.04318 17.2044L8.761 10.6274L15.9568 17.6723C16.4031 18.1092 17.1266 18.1092 17.5729 17.6723C18.0191 17.2354 18.0191 16.527 17.5729 16.0901L10.3771 9.04522L17.6653 1.90987C18.1115 1.47296 18.1115 0.764592 17.6653 0.327682C17.219 -0.109227 16.4955 -0.109228 16.0492 0.327681L8.761 7.46303L1.95078 0.795624C1.50451 0.358715 0.780969 0.358715 0.334701 0.795624C-0.111566 1.23253 -0.111567 1.9409 0.3347 2.37781L7.14492 9.04522L0.427098 15.6222Z" fill="white"/>
</svg>
