<svg width="32" height="32" viewBox="0 0 32 32" fill="none" xmlns="http://www.w3.org/2000/svg">
<rect width="32" height="32" fill="#C4C4C4"/>
<path fill-rule="evenodd" clip-rule="evenodd" d="M4.5695 23.8296C3.97448 24.4121 3.97448 25.3566 4.5695 25.9391C5.16453 26.5217 6.12925 26.5217 6.72427 25.9391L15.6813 17.1699L25.2757 26.5631C25.8707 27.1456 26.8355 27.1456 27.4305 26.5631C28.0255 25.9805 28.0255 25.036 27.4305 24.4535L17.8361 15.0603L27.5537 5.54649C28.1488 4.96395 28.1488 4.01946 27.5537 3.43691C26.9587 2.85436 25.994 2.85436 25.399 3.43691L15.6813 12.9507L6.60104 4.06085C6.00602 3.4783 5.04129 3.4783 4.44627 4.06085C3.85124 4.64339 3.85124 5.58789 4.44627 6.17043L13.5266 15.0603L4.5695 23.8296Z" fill="#1A1A1A"/>
</svg>
