<svg width="40" height="40" viewBox="0 0 40 40" fill="none" xmlns="http://www.w3.org/2000/svg">
<path fill-rule="evenodd" clip-rule="evenodd" d="M20 0C8.99023 0 0 8.99023 0 20C0 31.0749 8.99023 40 20 40C31.0749 40 40 31.0098 40 20C40 8.99023 31.0749 0 20 0ZM24.7557 20.456H21.6938V30.0326H17.7199V20.456H14.9837V16.9381H17.5896C17.5896 16.6124 17.5896 14.0065 17.785 13.4202C18.9577 8.85993 25.0163 10.228 25.1466 10.2932V13.355V13.4853C25.1466 13.4853 22.0847 13.1596 21.8241 14.9837V16.9381H24.7557H25.0814L24.7557 20.456Z" fill="white"/>
</svg>
