<svg width="32" height="34" viewBox="0 0 32 34" fill="none" xmlns="http://www.w3.org/2000/svg">
<path d="M0.602205 11.417C2.41728 6.18819 6.56957 3.06089 11.07 0.584067C12.2883 -0.0914297 14.2526 -0.166485 15.5952 0.283846C18.8275 1.33462 21.9107 2.86074 25.0684 4.1617C28.251 5.46265 30.3396 4.31181 29.3699 5.61276C26.784 9.01527 23.2782 10.066 19.3745 8.28973C17.5843 7.46413 15.8936 6.46339 14.0785 5.71284C11.1197 4.46192 8.11114 4.61203 5.45069 6.8887C2.49187 9.39054 1.2984 12.668 2.29296 16.5208C3.48643 21.2242 6.71876 24.1264 10.9954 25.9777C16.0925 28.1794 21.2393 27.754 26.3116 25.9777C28.798 25.1021 30.5634 23.2507 30.5385 20.4237C30.5385 19.1727 30.1655 17.2964 29.345 16.846C28.3256 16.2956 26.5105 16.5708 25.317 17.0962C23.4771 17.9218 19.1508 22.4251 14.2526 21.7747C11.2191 21.3744 8.65815 18.0219 8.80733 16.8961C8.93165 16.0204 8.98138 16.8961 13.3575 16.2706C16.6395 15.7953 19.0513 13.3434 20.8664 12.2176C24.2728 10.1161 27.157 10.2161 29.6931 13.2934C34.3676 18.9726 31.3341 27.2036 26.3365 30.8313C17.7335 37.0859 4.55559 33.8585 1.17408 22.9505C1.00003 22.4752 -0.964229 16.8961 0.602205 11.417Z" fill="#F2F2F2"/>
</svg>
