<svg width="29" height="16" viewBox="0 0 29 16" fill="none" xmlns="http://www.w3.org/2000/svg">
<path fill-rule="evenodd" clip-rule="evenodd" d="M27.3889 9.6H1.61111C0.708889 9.6 0 8.896 0 8C0 7.104 0.708889 6.4 1.61111 6.4H27.3889C28.2911 6.4 29 7.104 29 8C29 8.896 28.2911 9.6 27.3889 9.6ZM14.5 3.2H1.61111C0.708889 3.2 0 2.496 0 1.6C0 0.704 0.708889 0 1.61111 0H14.5C15.4022 0 16.1111 0.704 16.1111 1.6C16.1111 2.496 15.4022 3.2 14.5 3.2ZM14.5 12.8H27.3889C28.2911 12.8 29 13.504 29 14.4C29 15.296 28.2911 16 27.3889 16H14.5C13.5978 16 12.8889 15.296 12.8889 14.4C12.8889 13.504 13.5978 12.8 14.5 12.8Z" fill="white"/>
</svg>
