<svg width="46" height="36" viewBox="0 0 46 36" fill="none" xmlns="http://www.w3.org/2000/svg">
<rect width="46" height="36" fill="#E5E5E5"/>
<path d="M10.4 21.2C9.95817 21.5314 9.86863 22.1582 10.2 22.6C10.5314 23.0418 11.1582 23.1314 11.6 22.8L10.4 21.2ZM23 13L23.6 12.2C23.2444 11.9333 22.7556 11.9333 22.4 12.2L23 13ZM34.4 22.8C34.8418 23.1314 35.4686 23.0418 35.8 22.6C36.1314 22.1582 36.0418 21.5314 35.6 21.2L34.4 22.8ZM11.6 22.8L23.6 13.8L22.4 12.2L10.4 21.2L11.6 22.8ZM22.4 13.8L34.4 22.8L35.6 21.2L23.6 12.2L22.4 13.8Z" fill="#666666"/>
</svg>
