<svg width="112" height="22" viewBox="0 0 112 22" fill="none" xmlns="http://www.w3.org/2000/svg">
<path d="M2.98416 8.9314C1.27296 8.9314 0.208636 9.97477 0.208636 11.3729C0.208636 14.2527 4.19443 13.272 4.19443 15.6508C4.19443 16.6317 3.50584 17.4664 2.37883 17.4664C1.3145 17.4664 0.667635 16.7361 0.250363 16.1517L0 17.2578C0.43823 17.6125 1.04337 17.9881 2.06597 17.9881C4.02753 17.9881 5.17531 16.6944 5.17531 15.1708C5.17531 12.3328 1.18951 13.3135 1.18951 11.0181C1.18951 10.0582 1.8781 9.41135 2.77552 9.41135C3.48507 9.41135 3.9233 9.7869 4.46576 10.6009L4.79957 9.53653C4.31962 9.11926 3.73544 8.9314 2.98416 8.9314Z" fill="black"/>
<path d="M6.61518 10.6638V11.9575H5.88486C5.90582 12.0409 5.90582 12.1036 5.90582 12.1871C5.90582 12.2915 5.88486 12.354 5.88486 12.4584H6.61518V16.3607C6.61518 17.3416 7.17859 17.9468 8.18023 17.9468C8.55578 17.9468 8.91055 17.8633 9.18187 17.7589V17.4458C9.01497 17.4876 8.7646 17.5293 8.57673 17.5293C7.59586 17.5293 7.63759 16.4442 7.63759 15.6302V12.4582H9.01496C8.99401 12.3748 8.99401 12.2913 8.99401 12.2079C8.99401 12.1244 9.01496 12.0409 9.01496 11.9575H7.63759V10.1628L6.61518 10.6638Z" fill="black"/>
<path d="M9.91238 15.8597C9.91238 17.1744 10.7888 17.9257 11.9991 17.9257C12.959 17.9257 13.6269 17.4248 14.0024 16.7779V17.7796C14.211 17.7378 14.378 17.7169 14.5451 17.7169C14.712 17.7169 14.8789 17.7378 15.046 17.7796V11.7278C14.9208 11.7695 14.7539 11.7905 14.566 11.7905C14.3781 11.7905 14.2112 11.7695 14.0026 11.7278V13.7938C14.0026 15.3588 13.9609 15.9849 13.7522 16.4231C13.5019 16.9031 13.0427 17.2369 12.4166 17.2369C11.9157 17.2369 11.5611 17.0283 11.3523 16.7779C11.1436 16.5275 10.9767 16.131 10.9767 15.2546V11.7697C10.8933 11.8114 10.6219 11.8324 10.455 11.8324C10.2881 11.8324 10.1003 11.8114 9.93334 11.7697V15.8599H9.91238V15.8597Z" fill="black"/>
<path d="M21.6192 8.30561C21.4523 8.30561 21.2437 8.26388 21.0558 8.24292V12.8548C20.722 12.0828 20.0542 11.6445 19.1568 11.6445C17.8211 11.6445 16.3812 12.6462 16.3812 14.8583C16.3812 16.9868 17.6959 17.9259 18.9897 17.9259C20.1999 17.9259 20.8678 17.0912 21.0556 16.6947V17.8007C21.2852 17.7798 21.4312 17.738 21.5773 17.738C21.7235 17.738 21.8904 17.7798 22.0782 17.8007V8.24311C21.974 8.26369 21.7863 8.30561 21.6192 8.30561ZM19.2404 17.4665C18.4474 17.4665 17.5292 16.9239 17.5292 14.8998C17.5292 13.3765 18.0509 12.166 19.3239 12.166C20.4716 12.166 21.0768 13.1469 21.0768 14.6285C21.0975 15.9849 20.5759 17.4665 19.2404 17.4665Z" fill="black"/>
<path d="M35.7887 8.2429C35.7053 8.22194 35.6218 8.20117 35.5174 8.20117C35.1001 8.20117 34.6619 8.38904 34.2654 8.78554C33.4307 9.64104 33.0969 11.1228 33.0969 11.9366H32.2414C32.2623 12.0201 32.2623 12.1035 32.2623 12.187C32.2623 12.2704 32.2414 12.3539 32.2414 12.4373H33.0969V17.7796C33.222 17.7378 33.4099 17.7169 33.5978 17.7169C33.7856 17.7169 33.9733 17.7378 34.1404 17.7796V12.4581H35.3924C35.3715 12.3747 35.3715 12.2912 35.3715 12.2077C35.3715 12.1243 35.3924 12.0408 35.3924 11.9574H34.1404C34.057 11.4357 33.9943 10.6844 33.9943 10.3296C33.9943 9.70354 34.2446 9.0984 34.9959 9.0984C35.2046 9.0984 35.5176 9.14013 35.7889 9.30704V8.2429H35.7887Z" fill="black"/>
<path d="M38.9398 11.6443C38.272 11.6443 37.5417 12.2704 37.1869 13.1468V11.7695C37.02 11.8112 36.8738 11.8322 36.7277 11.8322C36.5608 11.8322 36.4146 11.8112 36.2268 11.7695V17.8212C36.4146 17.7795 36.5816 17.7586 36.7485 17.7586C36.9154 17.7586 37.0823 17.7795 37.2494 17.8212V14.3571C37.2494 13.3762 37.6876 12.5207 38.4806 12.5207C38.7519 12.5207 39.0233 12.6252 39.1902 12.7294L39.2946 11.7277C39.1484 11.6443 39.0442 11.6443 38.9398 11.6443Z" fill="black"/>
<path d="M45.868 17.8004C46.0142 17.7587 46.2019 17.7377 46.3897 17.7377C46.5776 17.7377 46.7653 17.7587 46.9114 17.8004V14.378C46.9114 13.0633 47.4748 12.3121 48.393 12.3121C48.9147 12.3121 49.3112 12.5834 49.4781 12.8755C49.645 13.1676 49.6867 13.6058 49.6867 14.7118V17.8004C49.8119 17.7587 49.9998 17.7377 50.1877 17.7377C50.3755 17.7377 50.5632 17.7587 50.7303 17.8004V14.7118C50.7303 13.6058 50.7513 13.251 51.0224 12.8962C51.2937 12.5207 51.711 12.3119 52.2536 12.3119C53.1928 12.3119 53.5266 12.9797 53.5266 13.8352V17.821C53.631 17.7793 53.7979 17.7583 54.0275 17.7583C54.1736 17.7583 54.4031 17.7793 54.5492 17.821V13.6473C54.5492 12.2282 53.7354 11.644 52.6711 11.644C51.7319 11.644 51.0226 12.0823 50.6051 12.896H50.5842C50.4173 12.2282 49.7077 11.644 48.7478 11.644C47.9757 11.644 47.3496 12.0196 46.9114 12.7501V11.7692C46.7028 11.811 46.5359 11.8319 46.3897 11.8319C46.2228 11.8319 46.0142 11.811 45.8888 11.7692V17.8H45.868V17.8004Z" fill="black"/>
<path d="M56.135 18.3845C56.135 19.4905 56.0306 20.7635 55.0499 20.7635C54.9664 20.7635 54.9037 20.7425 54.8412 20.7425L54.9247 21.1808C55.7385 21.1598 56.3855 20.7425 56.7611 20.2208C57.1576 19.6574 57.1576 19.0731 57.1576 18.3635V11.7693C57.0114 11.811 56.8238 11.832 56.6359 11.832C56.448 11.832 56.2604 11.811 56.1142 11.7693V18.3845H56.135Z" fill="black"/>
<path d="M56.0098 9.95399C56.0098 10.3088 56.3019 10.6009 56.6567 10.6009C57.0114 10.6009 57.3035 10.3088 57.3035 9.95399C57.3035 9.59922 57.0114 9.30713 56.6567 9.30713C56.3021 9.30713 56.0098 9.59922 56.0098 9.95399Z" fill="black"/>
<path d="M67.7169 11.6443C66.7987 11.6443 66.1518 12.0616 65.7136 12.8755V11.7695C65.5049 11.8112 65.338 11.8322 65.1919 11.8322C65.025 11.8322 64.8163 11.8112 64.691 11.7695V17.8212C64.8371 17.7795 65.0248 17.7586 65.2127 17.7586C65.4005 17.7586 65.5882 17.7795 65.7343 17.8212V14.3781C65.7343 13.0634 66.3812 12.3121 67.3204 12.3121C68.2386 12.3121 68.7185 13.0007 68.7185 14.2319V17.8212C68.8646 17.7795 69.0316 17.7586 69.1985 17.7586C69.3654 17.7586 69.5323 17.7795 69.7619 17.8212V13.8564C69.7411 12.1035 68.656 11.6443 67.7169 11.6443Z" fill="black"/>
<path d="M76.1894 8.30561C76.0225 8.30561 75.8138 8.26388 75.626 8.24292V12.8548C75.2921 12.0828 74.6243 11.6445 73.7269 11.6445C72.3914 11.6445 70.9514 12.6462 70.9514 14.8583C70.9514 16.9868 72.2661 17.9259 73.5598 17.9259C74.7701 17.9259 75.4379 17.0912 75.6258 16.6947V17.8007C75.8554 17.7798 76.0013 17.738 76.1475 17.738C76.2936 17.738 76.4605 17.7798 76.6484 17.8007V8.24311C76.5442 8.26369 76.3771 8.30561 76.1894 8.30561ZM73.8311 17.4665C73.0381 17.4665 72.1199 16.9239 72.1199 14.8998C72.1199 13.3765 72.6416 12.166 73.9146 12.166C75.0624 12.166 75.6675 13.1469 75.6675 14.6285C75.6677 15.9849 75.1668 17.4665 73.8311 17.4665Z" fill="black"/>
<path d="M31.6151 14.7119V14.2109C31.6151 12.8128 30.7386 11.6233 29.0484 11.6233C27.1493 11.6233 26.106 13.1258 26.106 14.8788C26.106 17.049 27.692 17.9047 29.1109 17.9047C30.0291 17.9047 30.7804 17.5291 31.302 17.1326L31.3855 16.444C30.8428 17.0074 30.1125 17.3622 29.3405 17.3622C28.0675 17.3622 27.2328 16.4023 27.2328 14.8372V14.6703H31.6151V14.7119ZM28.9857 12.0408C30.2587 12.0408 30.5925 13.3762 30.5925 14.2736H27.2745C27.3162 13.3554 27.692 12.0408 28.9857 12.0408Z" fill="black"/>
<path d="M83.5139 14.7119V14.2109C83.5139 12.8128 82.6374 11.6233 80.9472 11.6233C79.0481 11.6233 78.0048 13.1258 78.0048 14.8788C78.0048 17.049 79.5908 17.9047 81.0097 17.9047C81.9279 17.9047 82.6792 17.5291 83.2008 17.1326L83.2635 16.4857C82.7209 17.0492 81.9906 17.4039 81.2185 17.4039C79.9455 17.4039 79.1108 16.444 79.1108 14.879V14.7121H83.5139V14.7119ZM80.8845 12.0408C82.1575 12.0408 82.4913 13.3762 82.4913 14.2736H79.1733C79.2152 13.3554 79.6117 12.0408 80.8845 12.0408Z" fill="black"/>
<path d="M23.8103 17.8003C23.9564 17.7586 24.1441 17.7376 24.3319 17.7376C24.5198 17.7376 24.7075 17.7586 24.8536 17.8003V11.7485C24.7075 11.7903 24.5198 11.8112 24.3319 11.8112C24.1441 11.8112 23.9564 11.7903 23.8103 11.7485V17.8003Z" fill="black"/>
<path d="M23.6852 9.95399C23.6852 10.3088 23.9773 10.6009 24.3321 10.6009C24.6868 10.6009 24.9789 10.3088 24.9789 9.95399C24.9789 9.59922 24.6868 9.30713 24.3321 9.30713C23.9775 9.30713 23.6852 9.59922 23.6852 9.95399Z" fill="black"/>
<path d="M63.418 17.383C62.9798 17.383 62.9588 16.8613 62.9588 16.4438V13.5014C62.9588 12.3746 62.145 11.6233 60.8094 11.6233C60.246 11.6233 59.5782 11.7694 58.8478 12.3536V13.1049C59.2861 12.4788 59.9122 12.1867 60.559 12.1867C61.6024 12.1867 61.9572 12.8963 61.9572 13.7727C61.9572 14.2944 61.811 14.3361 60.0581 14.6282C58.9103 14.8369 58.2842 15.3795 58.2842 16.3185C58.2842 17.3618 59.0772 17.9252 60.0372 17.9252C60.7884 17.9252 61.3728 17.5705 61.9779 16.9861C62.0197 17.4453 62.3327 17.7999 62.8961 17.7999C63.2092 17.7999 63.5222 17.6955 63.6891 17.633V17.3616C63.6059 17.383 63.5015 17.383 63.418 17.383ZM61.9781 16.4648C61.6443 16.9865 61.0599 17.4039 60.4756 17.4039C59.8912 17.4039 59.3278 17.0074 59.3278 16.2144C59.3278 14.8163 61.0807 14.9207 61.9779 14.6284V16.4648H61.9781Z" fill="black"/>
<path d="M84.9957 10.6638V11.9575H84.2654C84.2863 12.0409 84.2863 12.1036 84.2863 12.1871C84.2863 12.2915 84.2654 12.354 84.2654 12.4584H84.9957V16.3607C84.9957 17.3416 85.5591 17.9468 86.5608 17.9468C86.9363 17.9468 87.2911 17.8633 87.5624 17.7589V17.4458C87.3955 17.4876 87.1451 17.5293 86.9573 17.5293C85.9764 17.5293 86.0181 16.4442 86.0181 15.6302V12.4582H87.3955C87.3745 12.3748 87.3745 12.2913 87.3745 12.2079C87.3745 12.1244 87.3745 12.0409 87.3955 11.9575H86.0181V10.1628L84.9957 10.6638Z" fill="black"/>
<path d="M44.5951 17.383C44.1568 17.383 44.1359 16.8613 44.1359 16.4438V13.5014C44.1359 12.3746 43.3221 11.6233 41.9864 11.6233C41.423 11.6233 40.7552 11.7694 40.0249 12.3536V13.1049C40.4631 12.5205 41.0892 12.1867 41.7569 12.1867C42.7585 12.1867 43.155 12.8963 43.155 13.7727C43.155 14.2944 43.0089 14.3361 41.2559 14.6282C40.1082 14.8369 39.4821 15.3795 39.4821 16.3185C39.4821 17.3618 40.2751 17.9252 41.235 17.9252C41.9863 17.9252 42.5706 17.5705 43.1758 16.9861C43.2175 17.4453 43.5305 17.7999 44.094 17.7999C44.407 17.7999 44.7201 17.6955 44.887 17.633V17.3616C44.7829 17.383 44.6785 17.383 44.5951 17.383ZM43.1552 16.4648C42.8214 16.9865 42.237 17.4039 41.6526 17.4039C41.0683 17.4039 40.5048 17.0074 40.5048 16.2144C40.5048 14.8163 42.2578 14.9207 43.155 14.6284V16.4648H43.1552Z" fill="black"/>
<path d="M40.3797 9.95401C40.3797 10.2878 40.651 10.5592 40.9848 10.5592C41.3186 10.5592 41.5899 10.2878 41.5899 9.95401C41.5899 9.6202 41.3186 9.34888 40.9848 9.34888C40.651 9.34888 40.3797 9.6202 40.3797 9.95401Z" fill="black"/>
<path d="M42.6125 9.95401C42.6125 10.2878 42.8838 10.5592 43.2177 10.5592C43.5515 10.5592 43.8228 10.2878 43.8228 9.95401C43.8228 9.6202 43.5515 9.34888 43.2177 9.34888C42.8838 9.34888 42.6125 9.6202 42.6125 9.95401Z" fill="black"/>
<path d="M94 0C91.2315 0 89 2.31023 89 5.1765V16H89.0826C89.5991 13.5614 91.4586 11.6363 94 11.6363C96.5414 11.6363 98.4009 13.5614 98.9174 16H99V5.1765C99 2.31023 96.7685 0 94 0Z" fill="black"/>
<path d="M107 0C104.231 0 102 2.31023 102 5.1765V16H102.083C102.599 13.5614 104.459 11.6363 107 11.6363C109.541 11.6363 111.401 13.5614 111.917 16H112V5.1765C112 2.31023 109.748 0 107 0Z" fill="black"/>
<path d="M100 1V18C100.13 17.9783 100.304 17.935 100.5 17.935C100.696 17.935 100.87 17.9783 101 18V1C100.87 1.02172 100.696 1.06497 100.5 1.06497C100.304 1.06477 100.13 1.02153 100 1Z" fill="black"/>
</svg>
